<svg xmlns="http://www.w3.org/2000/svg" viewBox="0 0 13.14 21.175">
  <defs>
    <style>
      .cls-1 {
        fill: #fff;
      }
    </style>
  </defs>
  <path id="Lighting1" class="cls-1" d="M831.229,669.076a.854.854,0,0,0-.727-.4h-4.4l.334-6.594a.8.8,0,0,0-.6-.805.86.86,0,0,0-.968.366l-6.549,10.712a.764.764,0,0,0,0,.8.855.855,0,0,0,.731.4h0l4.367-.009-.923,7.984a.8.8,0,0,0,.581.849.9.9,0,0,0,.257.038.853.853,0,0,0,.736-.409l7.168-12.143A.763.763,0,0,0,831.229,669.076Z" transform="translate(-818.205 -661.248)"/>
</svg>
