<svg xmlns="http://www.w3.org/2000/svg" viewBox="0 0 23.008 17.023">
  <defs>
    <style>
      .cls-1 {
        fill: #fff;
        fill-rule: evenodd;
      }
    </style>
  </defs>
  <path id="ShapeMail" class="cls-1" d="M39.008,17.988H21.985a2.961,2.961,0,0,0-2.993,2.922V32.09a2.961,2.961,0,0,0,2.993,2.921H39.008A2.961,2.961,0,0,0,42,32.09V20.91a2.961,2.961,0,0,0-2.992-2.922Zm-8.43,8.3L23.555,20.2H37.6L30.578,26.29Zm8.43,6.5H21.985a.714.714,0,0,1-.722-.7V21.184l8.48,7.346a1.143,1.143,0,0,0,.753.28c.028,0,.055-.007.082-.008s.054.008.082.008a1.143,1.143,0,0,0,.753-.28l8.316-7.2V32.09a.714.714,0,0,1-.721.7Z" transform="translate(-18.992 -17.988)"/>
</svg>
