<svg xmlns="http://www.w3.org/2000/svg" viewBox="0 0 22.2 14.11">
  <defs>
    <style>
      .cls-1 {
        fill: #7175b5;
        fill-rule: evenodd;
      }
    </style>
  </defs>
  <path id="Menu" class="cls-1" d="M1067.412,869.011h14.176a1.011,1.011,0,1,0-.108-2.008h-14.118a.922.922,0,0,0-1.013.941A1.064,1.064,0,0,0,1067.412,869.011Zm-.056-6.042h20.169a1.008,1.008,0,1,0,0-2.017h-20.169a1.008,1.008,0,1,0,0,2.017Zm0-6.05h20.169a.934.934,0,0,0,1.018-.951,1.064,1.064,0,0,0-1.063-1.067h-20.075a1.064,1.064,0,0,0-1.063,1.067A.93.93,0,0,0,1067.357,856.919Z" transform="translate(1088.544 869.011) rotate(180)"/>
</svg>
